<svg width="15" height="25" viewBox="0 0 15 25" fill="none" xmlns="http://www.w3.org/2000/svg">
<path d="M5 17.3068V17.0909C5.01515 15.6818 5.1553 14.5606 5.42045 13.7273C5.69318 12.8939 6.07955 12.2197 6.57955 11.7045C7.07955 11.1894 7.68182 10.7197 8.38636 10.2955C8.84091 10.0076 9.25 9.68561 9.61364 9.32955C9.97727 8.97348 10.2652 8.56439 10.4773 8.10227C10.6894 7.64015 10.7955 7.12879 10.7955 6.56818C10.7955 5.89394 10.6364 5.31061 10.3182 4.81818C10 4.32576 9.57576 3.94697 9.04545 3.68182C8.52273 3.40909 7.93939 3.27273 7.29545 3.27273C6.71212 3.27273 6.1553 3.39394 5.625 3.63636C5.0947 3.87879 4.6553 4.25758 4.30682 4.77273C3.95833 5.2803 3.75758 5.93561 3.70455 6.73864H0.25C0.30303 5.375 0.647727 4.22348 1.28409 3.28409C1.92045 2.33712 2.76136 1.62121 3.80682 1.13636C4.85985 0.651514 6.02273 0.40909 7.29545 0.40909C8.68939 0.40909 9.90909 0.670454 10.9545 1.19318C12 1.70833 12.8106 2.43182 13.3864 3.36364C13.9697 4.28788 14.2614 5.36742 14.2614 6.60227C14.2614 7.45076 14.1288 8.21591 13.8636 8.89773C13.5985 9.57197 13.2197 10.1742 12.7273 10.7045C12.2424 11.2348 11.6591 11.7045 10.9773 12.1136C10.3333 12.5152 9.81061 12.9318 9.40909 13.3636C9.01515 13.7955 8.72727 14.3068 8.54545 14.8977C8.36364 15.4886 8.26515 16.2197 8.25 17.0909V17.3068H5ZM6.71591 24.2159C6.0947 24.2159 5.56061 23.9962 5.11364 23.5568C4.66667 23.1098 4.44318 22.572 4.44318 21.9432C4.44318 21.322 4.66667 20.7917 5.11364 20.3523C5.56061 19.9053 6.0947 19.6818 6.71591 19.6818C7.32955 19.6818 7.85985 19.9053 8.30682 20.3523C8.76136 20.7917 8.98864 21.322 8.98864 21.9432C8.98864 22.3598 8.88258 22.7424 8.67045 23.0909C8.46591 23.4318 8.19318 23.7045 7.85227 23.9091C7.51136 24.1136 7.13258 24.2159 6.71591 24.2159Z" fill="white"/>
</svg>
